HIERARCHY
ROOT Hips
{
	OFFSET 0.00000 0.00000 0.00000
	CHANNELS 6 Xposition Yposition Zposition Zrotation Yrotation Xrotation 
	JOINT LHipJoint
	{
		OFFSET 0 0 0
		CHANNELS 3 Zrotation Yrotation Xrotation
		JOINT LeftHip
		{
			OFFSET 1.75344 -1.53157 0.77399
			CHANNELS 3 Zrotation Yrotation Xrotation
			JOINT LeftKnee
			{
				OFFSET 2.25415 -6.19323 0.00000
				CHANNELS 3 Zrotation Yrotation Xrotation
				JOINT LeftAnkle
				{
					OFFSET 2.30342 -6.32861 0.00000
					CHANNELS 3 Zrotation Yrotation Xrotation
					JOINT LeftToe
					{
						OFFSET 0.10958 -0.30108 1.49206
						CHANNELS 3 Zrotation Yrotation Xrotation
						End Site
						{
							OFFSET 0.00000 -0.00000 0.77783
						}
					}
				}
			}
		}
	}
	JOINT RHipJoint
	{
		OFFSET 0 0 0
		CHANNELS 3 Zrotation Yrotation Xrotation
		JOINT RightHip
		{
			OFFSET -1.81912 -1.53156 0.77399
			CHANNELS 3 Zrotation Yrotation Xrotation
			JOINT RightKnee
			{
				OFFSET -2.22882 -6.12365 0.00000
				CHANNELS 3 Zrotation Yrotation Xrotation
				JOINT RightAnkle
				{
					OFFSET -2.21943 -6.09785 0.00000
					CHANNELS 3 Zrotation Yrotation Xrotation
					JOINT RightToe
					{
						OFFSET -0.18931 -0.52012 1.59379
						CHANNELS 3 Zrotation Yrotation Xrotation
						End Site
						{
							OFFSET -0.00000 -0.00000 0.84686
						}
					}
				}
			}
		}
	}
	JOINT lowerback
	{
		OFFSET 0 0 0
		CHANNELS 3 Zrotation Yrotation Xrotation
		JOINT Chest
		{
			OFFSET -0.00200 1.66634 -0.14248
			CHANNELS 3 Zrotation Yrotation Xrotation
			JOINT Chest2
			{
				OFFSET -0.00875 1.64542 0.09514
				CHANNELS 3 Zrotation Yrotation Xrotation
				JOINT lowerneck
				{
					OFFSET 0 0 0
					CHANNELS 3 Zrotation Yrotation Xrotation
					JOINT Neck
					{
						OFFSET 0.02257 1.59605 0.00839
						CHANNELS 3 Zrotation Yrotation Xrotation
						JOINT Head
						{
							OFFSET -0.10214 1.57530 -0.23335
							CHANNELS 3 Zrotation Yrotation Xrotation
							End Site
							{
								OFFSET -0.03588 1.60717 -0.08062
							}
						}
					}
				}
				JOINT LeftCollar
				{
					OFFSET 0 0 0
					CHANNELS 3 Zrotation Yrotation Xrotation
					JOINT LeftShoulder
					{
						OFFSET 2.54983 1.10186 0.40078
CHANNELS 3 Zrotation Xrotation Yrotation
						JOINT LeftElbow
						{
OFFSET 0 -4.288400 0.000000
CHANNELS 3 Zrotation Xrotation Yrotation
							JOINT LeftWrist
							{
OFFSET 0 -3.065520 -0.000000
CHANNELS 3 Zrotation Xrotation Yrotation
								JOINT lhand
								{
									OFFSET 0 0 0
CHANNELS 3 Zrotation Xrotation Yrotation
									JOINT LFingers
									{
OFFSET 0 -0.753040 0.000000
CHANNELS 3 Zrotation Xrotation Yrotation
										End Site
										{
OFFSET 0 -0.607120 0.000000
										}
									}
								}
								JOINT LThumb
								{
OFFSET 0 0.000000 0.000000
CHANNELS 3 Zrotation Xrotation Yrotation
									End Site
									{
OFFSET 0 -0.616390 0.616390
									}
								}
							}
						}
					}
				}
				JOINT RightCollar
				{
					OFFSET 0 0 0
					CHANNELS 3 Zrotation Yrotation Xrotation
					JOINT RightShoulder
					{
						OFFSET -2.60909 1.35448 0.21802
CHANNELS 3 Zrotation Xrotation Yrotation
						JOINT RightElbow
						{
OFFSET 0 -4.521720 -0.000000
CHANNELS 3 Zrotation Xrotation Yrotation
							JOINT RightWrist
							{
OFFSET 0 -2.891400 0.000000
CHANNELS 3 Zrotation Xrotation Yrotation
								JOINT rhand
								{
									OFFSET 0 0 0
CHANNELS 3 Zrotation Xrotation Yrotation
									JOINT RFingers
									{
OFFSET 0 -0.680540 0.000000
CHANNELS 3 Zrotation Xrotation Yrotation
										End Site
										{
OFFSET 0 -0.548670 0.000000
										}
									}
								}
								JOINT RThumb
								{
OFFSET 0 0.000000 0.000000
CHANNELS 3 Zrotation Xrotation Yrotation
									End Site
									{
OFFSET 0 -0.557050 0.557050
									}
								}
							}
						}
					}
				}
			}
		}
	}
}
MOTION
Frames: 4
Frame Time: 0.008333333333333333
7.829987 15.363916 -33.135912 -188.803952 -65.574340 190.550992 0.000000 0.000000 0.000000 -26.820233 -18.010851 -0.850848 1.337452 7.322648 20.674887 1.131768 0.107394 -20.159640 7.484737 -15.726756 -50.684527 0.000000 0.000000 0.000000 10.719011 19.160785 -13.760175 -4.934913 -13.309837 40.540206 -1.572612 -3.243110 -25.044895 -0.793741 5.676689 -15.852122 -2.174555 -0.235336 7.523486 -0.332133 -0.631244 -4.360208 0.967601 -0.206096 -8.827827 -6.262179 -3.365747 -3.934141 3.779038 -4.261059 0.184715 2.179880 -2.102564 0.965936 0.000000 0.000000 0.000000 3.360789 3.320848 -44.566948 22.957256 -34.041963 7.114422 6.626198 9.828762 34.463935 0.000000 0.000000 0.000000 -7.125000 0.000000 0.000000 -14.267443 -3.726308 -15.644236 0.000000 0.000000 0.000000 -1.754995 16.587184 16.129622 -16.482290 -26.170229 -3.856227 5.061835 19.260564 52.057653 0.000000 0.000000 0.000000 7.125000 0.000000 0.000000 73.048940 69.299436 -50.896960
7.802809 15.330987 -33.420041 -192.448886 -74.683848 194.555130 0.000000 0.000000 0.000000 -24.912049 -20.405340 -2.359189 1.622094 8.030028 22.805399 1.281229 -6.292984 -20.251309 8.249351 -16.294183 -53.447132 0.000000 0.000000 0.000000 10.326918 23.049119 -9.435622 -3.792822 -11.879223 35.306481 -1.810760 1.958791 -24.911691 -1.468907 7.640304 -21.636455 -1.144172 -0.405011 7.314823 -0.216313 -0.721245 -4.264592 0.521874 -0.306241 -8.605665 -0.685648 3.434435 -5.443868 -0.206795 4.607674 0.568420 0.165743 2.287799 1.069520 0.000000 0.000000 0.000000 5.568137 3.563439 -47.644198 23.771650 -34.921148 7.575761 8.281999 4.751894 35.841213 0.000000 0.000000 0.000000 -7.125000 0.000000 0.000000 -13.473165 -5.271049 -15.059901 0.000000 0.000000 0.000000 -1.780604 17.740295 16.038041 -17.191489 -27.109480 -4.174209 3.090142 15.780456 49.855360 0.000000 0.000000 0.000000 7.125000 0.000000 0.000000 66.432563 69.134514 -44.769513
7.819489 15.313952 -33.741201 -209.943419 -83.681802 211.679487 0.000000 0.000000 0.000000 -23.503531 -23.812059 -2.964742 1.866257 8.581678 24.495288 0.755908 -14.314677 -17.276396 5.723944 -14.148814 -43.850851 0.000000 0.000000 0.000000 11.451702 24.919810 -4.375588 -3.321644 -11.198274 32.951568 -1.879910 3.493814 -25.061540 -1.520679 7.784396 -22.062289 -0.650737 -0.141985 7.686517 -0.146650 -0.290537 -3.662597 0.254557 -0.118182 -8.179882 6.058595 10.019796 -4.508441 -5.388383 13.109943 -0.502258 -2.311803 6.471472 1.421700 0.000000 0.000000 0.000000 7.252858 2.112638 -48.682682 23.909443 -35.068299 7.654545 9.159524 3.414539 36.029733 0.000000 0.000000 0.000000 -7.125000 0.000000 0.000000 -13.021319 -5.575186 -14.590426 0.000000 0.000000 0.000000 -2.382265 17.458699 12.882157 -16.924023 -26.757496 -4.053031 -1.757194 19.257351 48.993674 0.000000 0.000000 0.000000 7.125000 0.000000 0.000000 60.854514 70.393814 -41.525493
7.871789 15.289029 -34.101374 -333.188952 -85.001945 335.024092 0.000000 0.000000 0.000000 -20.507509 -26.449043 -5.741930 2.219389 9.308562 26.765601 -0.678664 -23.568128 -11.413559 2.811460 -10.378810 -30.216696 0.000000 0.000000 0.000000 14.422725 22.313198 -0.905180 -2.849138 -10.446041 30.434251 -1.702362 1.091526 -24.364861 -2.025367 8.918588 -25.541105 0.478665 -0.104304 8.474327 0.326404 -0.068000 -3.616686 0.088051 -0.054339 -8.593128 9.890403 15.401365 -1.878795 -8.688969 20.430102 -1.317901 -3.552414 10.133626 1.897725 0.000000 0.000000 0.000000 8.660482 0.823695 -47.945482 24.003211 -35.167465 7.708550 9.912968 2.395897 36.011981 0.000000 0.000000 0.000000 -7.125000 0.000000 0.000000 -12.618175 -5.666210 -14.134527 0.000000 0.000000 0.000000 -4.430951 17.866460 12.638525 -16.927393 -26.761796 -4.054707 -5.252145 21.156796 49.836202 0.000000 0.000000 0.000000 7.125000 0.000000 0.000000 60.504397 72.009703 -43.051601
